<mxfile host="Electron" agent="Mozilla/5.0 (Windows NT 10.0; Win64; x64) AppleWebKit/537.36 (KHTML, like Gecko) draw.io/25.0.2 Chrome/128.0.6613.186 Electron/32.2.5 Safari/537.36" version="25.0.2">
  <diagram name="Page-1" id="cN0XaPf89D9OITbDbtBv">
    <mxGraphModel dx="875" dy="518" grid="1" gridSize="10" guides="1" tooltips="1" connect="1" arrows="1" fold="1" page="1" pageScale="1" pageWidth="850" pageHeight="1100" math="0" shadow="0">
      <root>
        <mxCell id="0" />
        <mxCell id="1" parent="0" />
        <mxCell id="oZzexx3PdMZQUybGhf-H-23" value="" style="edgeStyle=orthogonalEdgeStyle;rounded=0;orthogonalLoop=1;jettySize=auto;html=1;" parent="1" source="oZzexx3PdMZQUybGhf-H-1" target="oZzexx3PdMZQUybGhf-H-3" edge="1">
          <mxGeometry relative="1" as="geometry" />
        </mxCell>
        <mxCell id="oZzexx3PdMZQUybGhf-H-1" value="Start" style="strokeWidth=2;html=1;shape=mxgraph.flowchart.start_1;whiteSpace=wrap;" parent="1" vertex="1">
          <mxGeometry x="250" y="150" width="100" height="60" as="geometry" />
        </mxCell>
        <mxCell id="oZzexx3PdMZQUybGhf-H-2" value="End" style="strokeWidth=2;html=1;shape=mxgraph.flowchart.start_1;whiteSpace=wrap;" parent="1" vertex="1">
          <mxGeometry x="250" y="730" width="100" height="60" as="geometry" />
        </mxCell>
        <mxCell id="oZzexx3PdMZQUybGhf-H-24" value="" style="edgeStyle=orthogonalEdgeStyle;rounded=0;orthogonalLoop=1;jettySize=auto;html=1;" parent="1" source="oZzexx3PdMZQUybGhf-H-3" target="oZzexx3PdMZQUybGhf-H-4" edge="1">
          <mxGeometry relative="1" as="geometry" />
        </mxCell>
        <mxCell id="oZzexx3PdMZQUybGhf-H-3" value="Input n" style="shape=parallelogram;html=1;strokeWidth=2;perimeter=parallelogramPerimeter;whiteSpace=wrap;rounded=1;arcSize=12;size=0.23;" parent="1" vertex="1">
          <mxGeometry x="250" y="250" width="100" height="60" as="geometry" />
        </mxCell>
        <mxCell id="oZzexx3PdMZQUybGhf-H-8" style="edgeStyle=orthogonalEdgeStyle;rounded=0;orthogonalLoop=1;jettySize=auto;html=1;entryX=0.423;entryY=-0.052;entryDx=0;entryDy=0;entryPerimeter=0;fillColor=#60a917;strokeColor=#2D7600;" parent="1" source="oZzexx3PdMZQUybGhf-H-4" edge="1">
          <mxGeometry relative="1" as="geometry">
            <mxPoint x="160.76" y="427.4000000000001" as="targetPoint" />
          </mxGeometry>
        </mxCell>
        <mxCell id="oZzexx3PdMZQUybGhf-H-27" style="edgeStyle=orthogonalEdgeStyle;rounded=0;orthogonalLoop=1;jettySize=auto;html=1;entryX=0.5;entryY=0;entryDx=0;entryDy=0;fillColor=#d80073;strokeColor=#A50040;" parent="1" source="oZzexx3PdMZQUybGhf-H-4" target="oZzexx3PdMZQUybGhf-H-5" edge="1">
          <mxGeometry relative="1" as="geometry" />
        </mxCell>
        <mxCell id="oZzexx3PdMZQUybGhf-H-4" value="n &amp;lt;=1?" style="rounded=1;whiteSpace=wrap;html=1;absoluteArcSize=1;arcSize=14;strokeWidth=2;" parent="1" vertex="1">
          <mxGeometry x="240" y="360" width="120" height="50" as="geometry" />
        </mxCell>
        <mxCell id="oZzexx3PdMZQUybGhf-H-26" value="" style="edgeStyle=orthogonalEdgeStyle;rounded=0;orthogonalLoop=1;jettySize=auto;html=1;fillColor=#d80073;strokeColor=#A50040;" parent="1" source="oZzexx3PdMZQUybGhf-H-5" target="oZzexx3PdMZQUybGhf-H-14" edge="1">
          <mxGeometry relative="1" as="geometry" />
        </mxCell>
        <mxCell id="oZzexx3PdMZQUybGhf-H-5" value="For i = 2 to n-1" style="rounded=1;whiteSpace=wrap;html=1;absoluteArcSize=1;arcSize=14;strokeWidth=2;" parent="1" vertex="1">
          <mxGeometry x="410" y="450" width="120" height="50" as="geometry" />
        </mxCell>
        <mxCell id="oZzexx3PdMZQUybGhf-H-10" value="True" style="text;html=1;align=center;verticalAlign=middle;resizable=0;points=[];autosize=1;strokeColor=none;fillColor=none;" parent="1" vertex="1">
          <mxGeometry x="160" y="358" width="50" height="30" as="geometry" />
        </mxCell>
        <mxCell id="oZzexx3PdMZQUybGhf-H-12" value="False" style="text;html=1;align=center;verticalAlign=middle;resizable=0;points=[];autosize=1;strokeColor=none;fillColor=none;" parent="1" vertex="1">
          <mxGeometry x="400" y="358" width="50" height="30" as="geometry" />
        </mxCell>
        <mxCell id="oZzexx3PdMZQUybGhf-H-19" value="" style="edgeStyle=orthogonalEdgeStyle;rounded=0;orthogonalLoop=1;jettySize=auto;html=1;fillColor=#d80073;strokeColor=#A50040;" parent="1" source="oZzexx3PdMZQUybGhf-H-14" edge="1">
          <mxGeometry relative="1" as="geometry">
            <Array as="points">
              <mxPoint x="470" y="620" />
              <mxPoint x="470" y="620" />
            </Array>
            <mxPoint x="470" y="660" as="targetPoint" />
          </mxGeometry>
        </mxCell>
        <mxCell id="oZzexx3PdMZQUybGhf-H-14" value="n % i == 0?" style="rounded=1;whiteSpace=wrap;html=1;absoluteArcSize=1;arcSize=14;strokeWidth=2;" parent="1" vertex="1">
          <mxGeometry x="410" y="540" width="120" height="50" as="geometry" />
        </mxCell>
        <mxCell id="oZzexx3PdMZQUybGhf-H-17" value="True" style="text;html=1;align=center;verticalAlign=middle;resizable=0;points=[];autosize=1;strokeColor=none;fillColor=none;" parent="1" vertex="1">
          <mxGeometry x="330" y="535" width="50" height="30" as="geometry" />
        </mxCell>
        <mxCell id="oZzexx3PdMZQUybGhf-H-20" value="false" style="text;html=1;align=center;verticalAlign=middle;resizable=0;points=[];autosize=1;strokeColor=none;fillColor=none;" parent="1" vertex="1">
          <mxGeometry x="470" y="610" width="50" height="30" as="geometry" />
        </mxCell>
        <mxCell id="DoWVX3eneflWq7j5oU1W-1" value="Print (Không phải là số nguyên tố)" style="strokeWidth=2;html=1;shape=mxgraph.flowchart.display;whiteSpace=wrap;fontSize=12;" vertex="1" parent="1">
          <mxGeometry x="110" y="430" width="100" height="60" as="geometry" />
        </mxCell>
        <mxCell id="DoWVX3eneflWq7j5oU1W-2" style="edgeStyle=orthogonalEdgeStyle;rounded=0;orthogonalLoop=1;jettySize=auto;html=1;entryX=0;entryY=0.5;entryDx=0;entryDy=0;entryPerimeter=0;fillColor=#60a917;strokeColor=#2D7600;" edge="1" parent="1" source="DoWVX3eneflWq7j5oU1W-1" target="oZzexx3PdMZQUybGhf-H-2">
          <mxGeometry relative="1" as="geometry">
            <Array as="points">
              <mxPoint x="160" y="760" />
            </Array>
          </mxGeometry>
        </mxCell>
        <mxCell id="DoWVX3eneflWq7j5oU1W-5" value="" style="edgeStyle=orthogonalEdgeStyle;rounded=0;orthogonalLoop=1;jettySize=auto;html=1;fillColor=#60a917;strokeColor=#2D7600;" edge="1" parent="1" source="DoWVX3eneflWq7j5oU1W-3" target="oZzexx3PdMZQUybGhf-H-2">
          <mxGeometry relative="1" as="geometry" />
        </mxCell>
        <mxCell id="DoWVX3eneflWq7j5oU1W-3" value="Print (Không phải là số nguyên tố)" style="strokeWidth=2;html=1;shape=mxgraph.flowchart.display;whiteSpace=wrap;fontSize=12;" vertex="1" parent="1">
          <mxGeometry x="250" y="620" width="100" height="60" as="geometry" />
        </mxCell>
        <mxCell id="DoWVX3eneflWq7j5oU1W-4" style="edgeStyle=orthogonalEdgeStyle;rounded=0;orthogonalLoop=1;jettySize=auto;html=1;entryX=0.5;entryY=0;entryDx=0;entryDy=0;entryPerimeter=0;fillColor=#60a917;strokeColor=#2D7600;" edge="1" parent="1" source="oZzexx3PdMZQUybGhf-H-14" target="DoWVX3eneflWq7j5oU1W-3">
          <mxGeometry relative="1" as="geometry" />
        </mxCell>
        <mxCell id="DoWVX3eneflWq7j5oU1W-6" value="Print (Là số nguyên tố)" style="strokeWidth=2;html=1;shape=mxgraph.flowchart.display;whiteSpace=wrap;" vertex="1" parent="1">
          <mxGeometry x="420" y="660" width="100" height="60" as="geometry" />
        </mxCell>
        <mxCell id="DoWVX3eneflWq7j5oU1W-7" style="edgeStyle=orthogonalEdgeStyle;rounded=0;orthogonalLoop=1;jettySize=auto;html=1;entryX=1;entryY=0.5;entryDx=0;entryDy=0;entryPerimeter=0;fillColor=#d80073;strokeColor=#A50040;" edge="1" parent="1" source="DoWVX3eneflWq7j5oU1W-6" target="oZzexx3PdMZQUybGhf-H-2">
          <mxGeometry relative="1" as="geometry">
            <Array as="points">
              <mxPoint x="470" y="760" />
            </Array>
          </mxGeometry>
        </mxCell>
      </root>
    </mxGraphModel>
  </diagram>
</mxfile>
